<svg xmlns="http://www.w3.org/2000/svg" width="400" height="200" viewBox="0 0 60 36">
  <!-- Прозрачный фон, белая заливка -->
  <path d="M4.6 20.08 c-0.28 0 -0.58 -0.04 -0.94 -0.1 c-1 -0.2 -1.94 -0.64 -2.68 -1.3 l-0.3 -0.24 l1.5 -1.66 l0.28 0.26 c0.88 0.74 1.6 0.88 2.06 0.88 c0.34 0 0.58 -0.04 0.82 -0.16 c0.3 -0.12 0.44 -0.32 0.44 -0.6 c0 -0.24 -0.14 -0.54 -1.32 -0.74 c-1.08 -0.22 -1.76 -0.44 -2.08 -0.62 c-0.42 -0.24 -0.76 -0.56 -1 -0.96 s-0.36 -0.84 -0.36 -1.34 c0 -0.52 0.16 -1.02 0.48 -1.48 c0.26 -0.38 0.64 -0.68 1.2 -0.96 c0.46 -0.22 0.98 -0.32 1.6 -0.32 c0.22 0 0.44 0.02 0.64 0.04 c0.88 0.14 1.76 0.52 2.48 1.08 l0.3 0.24 l-1.42 1.64 l-0.28 -0.22 c-0.7 -0.56 -1.3 -0.66 -1.66 -0.66 c-0.26 0 -0.5 0.04 -0.72 0.14 c-0.26 0.14 -0.4 0.36 -0.4 0.5 c0 0.28 0.2 0.48 1.24 0.72 c1.36 0.32 1.8 0.48 2.08 0.6 c0.56 0.32 0.8 0.58 1 0.84 c0.3 0.42 0.44 0.94 0.44 1.5 c0 0.58 -0.16 1.1 -0.46 1.52 s-0.7 0.78 -1.28 1.06 c-0.46 0.22 -1.06 0.34 -1.66 0.34 z M14.16 20.2 c-1.28 0 -2.48 -0.5 -3.38 -1.38 l-0.02 -0.02 c-0.88 -0.9 -1.38 -2.1 -1.38 -3.38 s0.5 -2.5 1.38 -3.4 c0.9 -0.88 2.1 -1.38 3.4 -1.38 c1.32 0 2.52 0.48 3.38 1.38 c0.2 0.2 0.36 0.38 0.5 0.56 l0.24 0.36 l-1.96 1.46 l-0.28 -0.38 c-0.48 -0.64 -1.18 -1.04 -1.88 -1.04 c-1.26 0 -2.34 1.12 -2.34 2.44 s1.08 2.44 2.34 2.44 c0.7 0 1.4 -0.4 1.88 -1.08 l0.26 -0.36 l2.04 1.46 l-0.3 0.38 c-0.04 0.06 -0.1 0.12 -0.16 0.18 c-0.1 0.12 -0.22 0.26 -0.34 0.38 c-0.88 0.88 -2.08 1.38 -3.38 1.38 z M23.88 20.18 c-1.26 0 -2.46 -0.48 -3.38 -1.38 c-0.9 -0.92 -1.4 -2.12 -1.4 -3.38 s0.5 -2.46 1.4 -3.38 c0.9 -0.9 2.1 -1.38 3.38 -1.38 c0.84 0 1.6 0.3 2.26 0.9 l0.1 0.08 l0 -0.8 l2.42 0 l0 9.16 l-2.42 0 l0 -0.72 l-0.1 0.1 c-0.72 0.7 -1.54 0.8 -2.26 0.8 z M23.88 13 c-1.28 0 -2.36 1.12 -2.36 2.42 c0 1.32 1.08 2.42 2.36 2.42 s2.36 -1.1 2.36 -2.42 c0 -1.3 -1.08 -2.42 -2.36 -2.42 z M33.82 20 l-2.6 0 l0 -14.68 l2.6 0 l0 14.68 z M41.44 10.66 c1.26 0 2.46 0.48 3.38 1.38 c0.9 0.92 1.4 2.12 1.4 3.38 s-0.5 2.46 -1.4 3.38 c-0.9 0.9 -2.1 1.38 -3.38 1.38 c-0.84 0 -1.6 -0.3 -2.26 -0.9 l-0.1 -0.08 l0 6.12 l-2.42 0 l0 -14.48 l2.42 0 l0 0.72 l0.1 -0.1 c0.72 -0.7 1.54 -0.8 2.26 -0.8 z M41.44 17.84 c1.28 0 2.36 -1.12 2.36 -2.42 c0 -1.32 -1.08 -2.42 -2.36 -2.42 s-2.36 1.1 -2.36 2.42 c0 1.3 1.08 2.42 2.36 2.42 z M50.44 20 l-2.52 0 l0 -9.16 l2.52 0 l0 0.74 c0.72 -0.72 1.8 -0.96 2.52 -0.96 l0.6 0 l-0.6 2.5 l-0.38 0 c-1.18 0 -2.14 0.92 -2.14 2.02 l0 4.86 z" fill="#ffffff" stroke="none" />
</svg>